<?xml version="1.0" standalone="no"?>
<!DOCTYPE svg PUBLIC "-//W3C//DTD SVG 20010904//EN"
 "http://www.w3.org/TR/2001/REC-SVG-20010904/DTD/svg10.dtd">
<svg version="1.0" xmlns="http://www.w3.org/2000/svg"
 width="480.000000pt" height="434.000000pt" viewBox="0 0 480.000000 434.000000"
 preserveAspectRatio="xMidYMid meet">

<g transform="translate(0.000000,434.000000) scale(0.100000,-0.100000)"
fill="#000000" stroke="none">
<path d="M2185 3599 c-358 -34 -675 -179 -934 -425 -240 -228 -399 -516 -473
-857 -30 -141 -33 -499 -4 -652 129 -697 672 -1232 1374 -1356 154 -27 386
-29 527 -5 119 21 312 82 414 131 178 85 362 229 497 387 46 55 84 102 84 107
0 7 -138 137 -210 198 l-33 27 -29 -35 c-17 -18 -60 -65 -97 -103 -189 -197
-429 -307 -679 -310 -103 -1 -104 -1 -129 28 -23 27 -25 36 -19 87 12 118 75
229 139 247 18 5 87 7 153 4 146 -6 218 11 258 59 33 39 41 70 28 118 -8 32
-6 47 10 82 10 24 17 53 14 64 -3 13 2 27 14 38 22 19 27 66 8 85 -22 22 5 56
55 69 111 30 112 90 3 247 -27 39 -60 86 -73 105 -25 36 -30 89 -12 122 14 27
-5 148 -40 254 -63 190 -209 327 -411 385 -108 31 -338 39 -444 16 -187 -42
-361 -176 -445 -344 -58 -116 -84 -230 -83 -367 1 -177 39 -296 151 -470 32
-49 64 -106 72 -125 19 -48 17 -171 -5 -245 -19 -62 -85 -215 -94 -215 -15 0
-148 105 -208 165 -238 238 -350 571 -323 961 55 789 755 1274 1485 1029 222
-74 433 -236 563 -430 29 -44 55 -82 57 -85 6 -5 304 292 304 303 0 20 -133
178 -221 262 -110 105 -183 163 -293 230 -199 120 -422 191 -672 215 -121 11
-149 11 -279 -1z m127 -1331 c15 -10 34 -28 41 -39 14 -19 16 -18 54 21 35 35
46 40 85 40 98 0 144 -115 90 -225 -26 -53 -94 -135 -154 -185 -71 -60 -70
-60 -174 44 -85 85 -127 160 -128 231 -1 118 96 177 186 113z"/>
<path d="M3292 2042 c-49 -7 -54 -84 -6 -102 36 -14 134 -12 164 3 27 14 35
36 26 72 -6 22 -12 24 -83 27 -43 2 -88 2 -101 0z"/>
<path d="M3552 2028 c-16 -16 -15 -50 2 -73 11 -16 29 -20 88 -23 87 -3 122
10 126 51 6 49 -11 57 -112 57 -58 0 -96 -4 -104 -12z"/>
<path d="M3840 2019 c-26 -48 11 -89 81 -89 29 0 29 0 29 -60 0 -47 4 -64 20
-80 24 -24 38 -25 68 -4 20 14 22 23 22 115 0 139 0 139 -115 139 -85 0 -95
-2 -105 -21z"/>
<path d="M3967 1692 c-19 -20 -47 -130 -47 -182 0 -43 15 -60 52 -60 37 0 52
27 72 124 20 97 20 92 -4 116 -25 25 -52 26 -73 2z"/>
<path d="M3887 1373 c-19 -5 -97 -151 -97 -183 0 -26 43 -54 70 -45 22 7 100
150 100 184 0 18 -36 53 -50 50 -3 -1 -13 -3 -23 -6z"/>
</g>
</svg>
